<svg width="20" height="20" viewBox="0 0 20 20" fill="none" xmlns="http://www.w3.org/2000/svg">
<path d="M14.707 10.4741C14.6995 9.10852 15.3172 8.07782 16.5674 7.31876C15.8679 6.31783 14.8112 5.76714 13.4158 5.65923C12.0949 5.55504 10.6512 6.42946 10.1228 6.42946C9.56467 6.42946 8.28467 5.69644 7.28003 5.69644C5.20376 5.72993 2.99725 7.35225 2.99725 10.6527C2.99725 11.6276 3.17586 12.6347 3.53307 13.6741C4.00934 15.0397 5.7284 18.3885 7.52189 18.3327C8.45956 18.3103 9.12188 17.6666 10.3423 17.6666C11.5256 17.6666 12.1395 18.3327 13.1851 18.3327C14.9935 18.3066 16.5488 15.2629 17.0028 13.8936C14.5767 12.7513 14.707 10.5448 14.707 10.4741ZM12.6009 4.36435C13.6167 3.15877 13.5237 2.0611 13.494 1.66669C12.5972 1.71878 11.5591 2.27692 10.9675 2.96529C10.3163 3.70203 9.93304 4.61365 10.0149 5.64062C10.9861 5.71504 11.8716 5.21644 12.6009 4.36435Z" fill="#2A84C6"/>
</svg>
