<svg width="124" height="29" viewBox="0 0 124 29" fill="none" xmlns="http://www.w3.org/2000/svg">
<path d="M8.4646 28.5204H13.1553V20.3205H18.5732C23.882 20.3205 27.5 16.9855 27.5 12.0346V12.0002C27.5 7.03215 23.882 3.71436 18.5732 3.71436H8.4646V28.5204ZM17.4096 7.34157C20.7731 7.34157 22.7366 9.04345 22.7366 12.0174V12.0518C22.7366 15.0258 20.7731 16.7448 17.4096 16.7448H13.1553V7.34157H17.4096Z" fill="#1443BD"/>
<path d="M8.4646 28.5204H13.1553V20.3205H18.5732C23.882 20.3205 27.5 16.9855 27.5 12.0346V12.0002C27.5 7.03215 23.882 3.71436 18.5732 3.71436H8.4646V28.5204ZM17.4096 7.34157C20.7731 7.34157 22.7366 9.04345 22.7366 12.0174V12.0518C22.7366 15.0258 20.7731 16.7448 17.4096 16.7448H13.1553V7.34157H17.4096Z" fill="black" fill-opacity="0.5"/>
<path d="M70.9938 22.5207H75.5209V11.3639C75.5209 9.14636 77.0481 7.53044 79.2298 7.53044C81.3387 7.53044 82.6478 8.80254 82.6478 10.8482V22.5207H87.0475V11.2608C87.0475 9.0604 88.5384 7.53044 90.7201 7.53044C92.9382 7.53044 94.1744 8.81974 94.1744 11.0717V22.5207H98.7015V10.0059C98.7015 6.36148 96.2107 3.92041 92.4109 3.92041C89.6292 3.92041 87.3384 5.33004 86.4112 7.5992H86.3021C85.5931 5.26128 83.6477 3.92041 80.9569 3.92041C78.4116 3.92041 76.4299 5.2269 75.6117 7.22101H75.5209V4.2986H70.9938V22.5207Z" fill="#1443BD"/>
<path d="M70.9938 22.5207H75.5209V11.3639C75.5209 9.14636 77.0481 7.53044 79.2298 7.53044C81.3387 7.53044 82.6478 8.80254 82.6478 10.8482V22.5207H87.0475V11.2608C87.0475 9.0604 88.5384 7.53044 90.7201 7.53044C92.9382 7.53044 94.1744 8.81974 94.1744 11.0717V22.5207H98.7015V10.0059C98.7015 6.36148 96.2107 3.92041 92.4109 3.92041C89.6292 3.92041 87.3384 5.33004 86.4112 7.5992H86.3021C85.5931 5.26128 83.6477 3.92041 80.9569 3.92041C78.4116 3.92041 76.4299 5.2269 75.6117 7.22101H75.5209V4.2986H70.9938V22.5207Z" fill="black" fill-opacity="0.5"/>
<path d="M54.3219 28.9875C58.3398 28.9875 60.5943 27.5607 62.0669 23.5553L68.9938 4.71436H64.2304L59.7034 19.292H59.5761L55.0673 4.71436H50.1221L57.049 22.9536L56.7763 23.6928C56.1945 25.2228 55.2309 25.6869 53.5037 25.6869C52.8674 25.6869 52.3401 25.6009 51.9947 25.5322V28.7984C52.5401 28.8843 53.4492 28.9875 54.3219 28.9875Z" fill="#1443BD"/>
<path d="M54.3219 28.9875C58.3398 28.9875 60.5943 27.5607 62.0669 23.5553L68.9938 4.71436H64.2304L59.7034 19.292H59.5761L55.0673 4.71436H50.1221L57.049 22.9536L56.7763 23.6928C56.1945 25.2228 55.2309 25.6869 53.5037 25.6869C52.8674 25.6869 52.3401 25.6009 51.9947 25.5322V28.7984C52.5401 28.8843 53.4492 28.9875 54.3219 28.9875Z" fill="black" fill-opacity="0.5"/>
<path d="M2.63623 9.68244C4.10888 9.68244 5.25428 8.58224 5.25428 7.1898C5.25428 5.79736 4.10888 4.71436 2.63623 4.71436C1.16358 4.71436 0 5.79736 0 7.1898C0 8.58224 1.16358 9.68244 2.63623 9.68244ZM2.63623 22.3003C4.10888 22.3003 5.25428 21.2001 5.25428 19.8077C5.25428 18.4325 4.10888 17.3323 2.63623 17.3323C1.16358 17.3323 0 18.4325 0 19.8077C0 21.2001 1.16358 22.3003 2.63623 22.3003Z" fill="#1443BD"/>
<path d="M2.63623 9.68244C4.10888 9.68244 5.25428 8.58224 5.25428 7.1898C5.25428 5.79736 4.10888 4.71436 2.63623 4.71436C1.16358 4.71436 0 5.79736 0 7.1898C0 8.58224 1.16358 9.68244 2.63623 9.68244ZM2.63623 22.3003C4.10888 22.3003 5.25428 21.2001 5.25428 19.8077C5.25428 18.4325 4.10888 17.3323 2.63623 17.3323C1.16358 17.3323 0 18.4325 0 19.8077C0 21.2001 1.16358 22.3003 2.63623 22.3003Z" fill="black" fill-opacity="0.5"/>
<path d="M45.9641 19.5655C49.5252 16.0044 49.5372 12.0054 47.98 9.59979L47.8849 9.42751L44.8895 12.4229L44.9489 12.5337C45.5034 13.7053 45.2643 15.5489 43.6702 17.143C41.5876 19.2257 38.9391 19.1999 36.6268 16.9903L46.1658 7.45131L45.1934 6.47886C41.3036 2.58907 36.2975 2.41682 32.4022 6.31215C28.5069 10.2075 28.6742 15.3886 32.7342 19.4486L32.7464 19.4607C36.8428 23.5571 41.8759 23.6537 45.9641 19.5655ZM34.8111 8.64392C36.5081 6.94695 38.7633 6.73386 41.0369 8.54459L34.6475 14.9339C32.9233 12.6955 33.1141 10.3409 34.8111 8.64392Z" fill="#1443BD"/>
<path d="M45.9641 19.5655C49.5252 16.0044 49.5372 12.0054 47.98 9.59979L47.8849 9.42751L44.8895 12.4229L44.9489 12.5337C45.5034 13.7053 45.2643 15.5489 43.6702 17.143C41.5876 19.2257 38.9391 19.1999 36.6268 16.9903L46.1658 7.45131L45.1934 6.47886C41.3036 2.58907 36.2975 2.41682 32.4022 6.31215C28.5069 10.2075 28.6742 15.3886 32.7342 19.4486L32.7464 19.4607C36.8428 23.5571 41.8759 23.6537 45.9641 19.5655ZM34.8111 8.64392C36.5081 6.94695 38.7633 6.73386 41.0369 8.54459L34.6475 14.9339C32.9233 12.6955 33.1141 10.3409 34.8111 8.64392Z" fill="black" fill-opacity="0.5"/>
<path d="M116.964 19.5655C120.525 16.0044 120.537 12.0054 118.98 9.5998L118.885 9.42752L115.889 12.4229L115.949 12.5337C116.503 13.7053 116.264 15.5489 114.67 17.143C112.588 19.2257 109.939 19.1999 107.627 16.9903L117.166 7.45131L116.193 6.47886C112.304 2.58907 107.298 2.41683 103.402 6.31215C99.5069 10.2075 99.6742 15.3886 103.734 19.4486L103.746 19.4607C107.843 23.5571 112.876 23.6537 116.964 19.5655ZM105.811 8.64391C107.508 6.94694 109.763 6.73385 112.037 8.54459L105.648 14.9339C103.923 12.6955 104.114 10.3409 105.811 8.64391Z" fill="#1443BD"/>
<path d="M116.964 19.5655C120.525 16.0044 120.537 12.0054 118.98 9.5998L118.885 9.42752L115.889 12.4229L115.949 12.5337C116.503 13.7053 116.264 15.5489 114.67 17.143C112.588 19.2257 109.939 19.1999 107.627 16.9903L117.166 7.45131L116.193 6.47886C112.304 2.58907 107.298 2.41683 103.402 6.31215C99.5069 10.2075 99.6742 15.3886 103.734 19.4486L103.746 19.4607C107.843 23.5571 112.876 23.6537 116.964 19.5655ZM105.811 8.64391C107.508 6.94694 109.763 6.73385 112.037 8.54459L105.648 14.9339C103.923 12.6955 104.114 10.3409 105.811 8.64391Z" fill="black" fill-opacity="0.5"/>
</svg>
