<svg width="240" height="249" viewBox="0 0 240 249" fill="none" xmlns="http://www.w3.org/2000/svg">
<path d="M152.871 57.7981H0.631256V123.351H152.871V57.7981Z" fill="#1443BD"/>
<path d="M152.871 57.7981H0.631256V123.351H152.871V57.7981Z" fill="black" fill-opacity="0.35"/>
<path d="M70.9714 2.05271L0.699615 57.792L148.885 61.626C149.203 61.6254 149.52 61.5898 149.831 61.5199C151.691 61.0536 152.987 59.7074 152.966 57.792L80.4542 1.87013C77.5718 -0.0049789 73.8538 0.177595 70.9714 2.05271Z" fill="#1443BD"/>
<path d="M70.9714 2.05271L0.699615 57.792L148.885 61.626C149.203 61.6254 149.52 61.5898 149.831 61.5199C151.691 61.0536 152.987 59.7074 152.966 57.792L80.4542 1.87013C77.5718 -0.0049789 73.8538 0.177595 70.9714 2.05271Z" fill="black" fill-opacity="0.35"/>
<path fill-rule="evenodd" clip-rule="evenodd" d="M43.5044 60.694L57.2737 48.344L66.6196 64.5123L43.5044 60.694Z" fill="#FFD666"/>
<path fill-rule="evenodd" clip-rule="evenodd" d="M110.502 71.7609L101.42 55.6363L88.1203 68.0638L110.502 71.7609Z" fill="#FFA940"/>
<path fill-rule="evenodd" clip-rule="evenodd" d="M43.5044 60.6941L70.3722 106.141L66.6301 64.5141L43.5044 60.6941Z" fill="#FFC53D"/>
<path fill-rule="evenodd" clip-rule="evenodd" d="M110.355 71.7368L70.3722 106.141L88.0531 68.0529L110.355 71.7368Z" fill="#FA8C16"/>
<path fill-rule="evenodd" clip-rule="evenodd" d="M57.1567 48.3247L79.3913 51.9975L65.9224 64.3971L57.1567 48.3247Z" fill="#FFC53D"/>
<path fill-rule="evenodd" clip-rule="evenodd" d="M79.2445 51.9731L101.479 55.646L88.0908 68.0589L79.2445 51.9731Z" fill="#FFC53D"/>
<path fill-rule="evenodd" clip-rule="evenodd" d="M65.8889 64.3717L79.3405 51.9891L88.1235 68.0446L86.1392 72.1089L66.5118 68.6768L65.8889 64.3717Z" fill="#FFA940"/>
<path fill-rule="evenodd" clip-rule="evenodd" d="M65.9591 64.4031L70.3907 106.144L88.1203 68.0638L65.9591 64.4031Z" fill="#FAAD14"/>
<g clip-path="url(#clip0_88_554)">
<path d="M65.6003 131.057C80.1389 137.645 97.2962 131.131 103.922 116.508C110.548 101.885 104.134 84.6908 89.5956 78.1028C75.057 71.5149 57.8996 78.0285 51.2735 92.6513C44.6474 107.274 51.0617 124.469 65.6003 131.057Z" fill="#FFD666"/>
<path d="M67.7101 125.513C79.5209 130.865 93.4341 125.629 98.786 113.818C104.138 102.007 98.9019 88.0941 87.091 82.7422C75.2802 77.3903 61.367 82.6263 56.0151 94.4372C50.6632 106.248 55.8992 120.161 67.7101 125.513Z" fill="#FFC53D"/>
<path d="M71.2572 118.105C70.63 117.821 70.1513 117.546 69.8211 117.28L71.2804 114.059C70.1507 113.344 69.1662 112.549 68.3268 111.674C67.4874 110.799 66.8497 110.009 66.4138 109.302C66.6609 108.789 67.0691 108.305 67.6384 107.851C68.2078 107.397 68.7341 107.134 69.2173 107.062C69.797 107.964 70.5307 108.864 71.4184 109.76C72.306 110.657 73.2718 111.349 74.3157 111.836C75.341 112.301 76.2837 112.466 77.1438 112.333C78.0095 112.187 78.6314 111.713 79.0097 110.91C79.3223 110.252 79.3884 109.577 79.2078 108.885C79.0328 108.18 78.564 107.466 77.8014 106.743L74.8572 103.904C73.7501 102.85 72.9986 101.717 72.6027 100.505C72.2243 99.287 72.3329 98.0205 72.9287 96.7058C73.6119 95.198 74.6972 94.1343 76.1848 93.5144C77.6844 92.9 79.3212 92.8493 81.095 93.3624L82.5297 90.1961C82.7566 90.2408 83.0082 90.3112 83.2845 90.4073C83.5729 90.5089 83.8437 90.6171 84.097 90.7319C84.688 90.9997 85.1607 91.272 85.515 91.5489L84.0721 94.7332C85.0361 95.3008 85.8807 95.9234 86.6059 96.601C87.3431 97.284 87.9703 97.9534 88.4872 98.6093C88.2467 99.14 87.8769 99.6194 87.3776 100.047C86.8904 100.481 86.3746 100.785 85.8301 100.96C85.1935 100.119 84.489 99.3636 83.7167 98.6938C82.9564 98.0294 82.1481 97.5032 81.2917 97.1152C80.3026 96.667 79.4142 96.5261 78.6264 96.6925C77.8387 96.8589 77.2781 97.31 76.9447 98.0458C76.6277 98.7454 76.6163 99.3799 76.9107 99.9495C77.2106 100.507 77.6743 101.088 78.3019 101.692L81.0816 104.413C82.2633 105.559 83.0516 106.803 83.4466 108.145C83.8416 109.487 83.6921 110.924 82.9979 112.456C82.2983 114 81.1593 115.054 79.5807 115.618C78.0075 116.17 76.2277 116.119 74.2411 115.466L72.8064 118.632C72.4008 118.565 71.8844 118.389 71.2572 118.105Z" fill="white"/>
</g>
<g clip-path="url(#clip1_88_554)">
<path d="M102.554 101.035C111.088 104.902 121.158 101.078 125.048 92.4954C128.937 83.9124 125.172 73.8198 116.638 69.953C108.105 66.0861 98.0342 69.9093 94.145 78.4923C90.2557 87.0753 94.0206 97.1679 102.554 101.035Z" fill="#FFD666"/>
<path d="M103.793 97.7804C110.725 100.922 118.891 97.8485 122.033 90.916C125.174 83.9835 122.101 75.8171 115.168 72.6757C108.236 69.5344 100.069 72.6077 96.9281 79.5402C93.7868 86.4726 96.8601 94.6391 103.793 97.7804Z" fill="#FFC53D"/>
<path d="M105.875 93.4325C105.507 93.2657 105.226 93.1042 105.032 92.9481L105.888 91.0579C105.225 90.6379 104.647 90.1713 104.155 89.6579C103.662 89.1445 103.288 88.6805 103.032 88.2659C103.177 87.9646 103.416 87.6807 103.751 87.414C104.085 87.1473 104.394 86.9928 104.677 86.9507C105.018 87.4804 105.448 88.0083 105.969 88.5345C106.49 89.0608 107.057 89.467 107.67 89.7531C108.272 90.0258 108.825 90.123 109.33 90.0445C109.838 89.959 110.203 89.6807 110.425 89.2096C110.609 88.8234 110.647 88.4271 110.541 88.0207C110.439 87.6072 110.163 87.1881 109.716 86.7634L107.988 85.0971C107.338 84.4784 106.897 83.8134 106.664 83.1023C106.442 82.3872 106.506 81.6438 106.856 80.8721C107.257 79.9872 107.894 79.3628 108.767 78.9989C109.647 78.6383 110.608 78.6086 111.649 78.9097L112.491 77.0513C112.624 77.0775 112.772 77.1188 112.934 77.1752C113.103 77.2348 113.262 77.2983 113.411 77.3657C113.758 77.5229 114.035 77.6827 114.243 77.8453L113.397 79.7143C113.962 80.0475 114.458 80.4129 114.884 80.8106C115.316 81.2115 115.685 81.6045 115.988 81.9894C115.847 82.3009 115.63 82.5823 115.337 82.8335C115.051 83.0879 114.748 83.2665 114.428 83.3691C114.055 82.8755 113.641 82.4322 113.188 82.039C112.742 81.6491 112.267 81.3402 111.765 81.1124C111.184 80.8494 110.663 80.7667 110.2 80.8644C109.738 80.962 109.409 81.2268 109.213 81.6587C109.027 82.0693 109.02 82.4418 109.193 82.776C109.369 83.1033 109.641 83.4442 110.01 83.7989L111.641 85.3958C112.335 86.0685 112.798 86.7987 113.029 87.5864C113.261 88.3742 113.173 89.2176 112.766 90.1167C112.355 91.0229 111.687 91.6416 110.76 91.9727C109.837 92.2967 108.792 92.267 107.626 91.8837L106.784 93.7421C106.546 93.7025 106.243 93.5993 105.875 93.4325Z" fill="white"/>
</g>
<g clip-path="url(#clip2_88_554)">
<path d="M46.5223 100.426C55.7122 98.6042 61.6763 89.634 59.8435 80.3909C58.0108 71.1478 49.0752 65.1319 39.8854 66.9541C30.6955 68.7763 24.7314 77.7464 26.5642 86.9896C28.3969 96.2327 37.3325 102.249 46.5223 100.426Z" fill="#FFD666"/>
<path d="M45.6353 97.0593C53.1009 95.579 57.953 88.3269 56.4727 80.8612C54.9924 73.3956 47.7403 68.5435 40.2746 70.0238C32.809 71.5041 27.9569 78.7562 29.4372 86.2219C30.9175 93.6875 38.1696 98.5396 45.6353 97.0593Z" fill="#FFC53D"/>
<path d="M44.7974 92.3117C44.401 92.3903 44.0785 92.4226 43.8301 92.4085L43.4264 90.3728C42.6428 90.4172 41.9013 90.3741 41.2018 90.2433C40.5024 90.1126 39.928 89.9531 39.4786 89.7649C39.4212 89.4355 39.4508 89.0652 39.5673 88.6538C39.6839 88.2424 39.8452 87.9371 40.0513 87.7377C40.6363 87.9704 41.2937 88.149 42.0237 88.2737C42.7536 88.3984 43.451 88.3988 44.1158 88.2749C44.7639 88.1464 45.2704 87.9033 45.6353 87.5457C45.9987 87.1805 46.1336 86.7417 46.0399 86.2294C45.9644 85.8085 45.7653 85.4637 45.4425 85.1949C45.1183 84.9184 44.6506 84.7378 44.0395 84.6529L41.6644 84.3037C40.7759 84.1788 40.0302 83.8948 39.4273 83.4517C38.8305 82.9995 38.4497 82.3579 38.2849 81.5269C38.096 80.5738 38.2506 79.6953 38.7489 78.8913C39.2548 78.0857 40.0187 77.5024 41.0406 77.1413L40.6438 75.1399C40.7673 75.0837 40.9115 75.0314 41.0762 74.9829C41.2485 74.9329 41.4147 74.892 41.5748 74.8602C41.9484 74.7862 42.2671 74.7547 42.5308 74.7658L42.9299 76.7786C43.5839 76.7202 44.1997 76.7289 44.7773 76.8045C45.3626 76.8786 45.8906 76.9839 46.3614 77.1204C46.4279 77.4558 46.4151 77.811 46.323 78.1858C46.2386 78.5592 46.0963 78.8806 45.8961 79.15C45.305 78.9661 44.7107 78.8463 44.1132 78.7904C43.5234 78.733 42.9578 78.758 42.4165 78.8653C41.7913 78.9893 41.3191 79.2256 41 79.5741C40.6808 79.9226 40.5673 80.3295 40.6596 80.7945C40.7472 81.2367 40.9586 81.5435 41.2937 81.7148C41.6273 81.8784 42.047 81.9973 42.553 82.0713L44.8092 82.4203C45.7647 82.5636 46.566 82.8881 47.213 83.3937C47.86 83.8994 48.2795 84.6363 48.4715 85.6046C48.665 86.5805 48.4814 87.4727 47.9206 88.2812C47.3583 89.0821 46.4915 89.666 45.3202 90.0329L45.7171 92.0343C45.5004 92.1407 45.1939 92.2331 44.7974 92.3117Z" fill="white"/>
</g>
<path d="M80.8399 116.064C78.3253 116.904 75.5648 116.549 73.3445 115.101L0.517242 57.792V154.337C0.517242 156.474 2.62333 158.208 4.87505 158.208H148.882C151.138 158.208 152.967 156.474 152.967 154.337V57.792L83.4214 114.643C82.6504 115.264 81.7767 115.745 80.8399 116.064Z" fill="#2A84C6"/>
<path d="M80.8399 116.064C78.3253 116.904 75.5648 116.549 73.3445 115.101L0.517242 57.792V154.337C0.517242 156.474 2.62333 158.208 4.87505 158.208H148.882C151.138 158.208 152.967 156.474 152.967 154.337V57.792L83.4214 114.643C82.6504 115.264 81.7767 115.745 80.8399 116.064Z" fill="white" fill-opacity="0.85"/>
<path fill-rule="evenodd" clip-rule="evenodd" d="M80.8399 116.064C78.3253 116.904 75.5648 116.549 73.3445 115.101L72.7625 114.643L0.517242 154.337C0.517242 156.474 2.62333 158.208 4.87505 158.208H148.882C151.138 158.208 152.967 156.474 152.967 154.337L83.4214 114.643C82.6504 115.264 81.7767 115.745 80.8399 116.064Z" fill="#1443BD"/>
<path fill-rule="evenodd" clip-rule="evenodd" d="M80.8399 116.064C78.3253 116.904 75.5648 116.549 73.3445 115.101L72.7625 114.643L0.517242 154.337C0.517242 156.474 2.62333 158.208 4.87505 158.208H148.882C151.138 158.208 152.967 156.474 152.967 154.337L83.4214 114.643C82.6504 115.264 81.7767 115.745 80.8399 116.064Z" fill="white" fill-opacity="0.85"/>
<g clip-path="url(#clip3_88_554)" filter="url(#filter0_ddddd_88_554)">
<path fill-rule="evenodd" clip-rule="evenodd" d="M98.9039 60.3679L98.397 57.0502L96.1803 54.5303L96.1802 54.53L99.4981 54.0231L102.018 51.8062L102.525 55.1241L104.742 57.6443L104.742 57.6444L101.424 58.1512L98.9042 60.368L98.904 60.3681L98.9039 60.3679Z" fill="white"/>
</g>
<g filter="url(#filter1_ddddd_88_554)">
<ellipse cx="152.689" cy="121.846" rx="16.7941" ry="16.7941" fill="white"/>
<path d="M159.825 114.724C159.398 114.285 158.764 114.122 158.174 114.294L144.407 118.297C143.784 118.47 143.343 118.967 143.224 119.598C143.102 120.24 143.527 121.056 144.081 121.397L148.386 124.042C148.827 124.313 149.397 124.245 149.763 123.877L154.692 118.917C154.94 118.659 155.35 118.659 155.599 118.917C155.847 119.167 155.847 119.571 155.599 119.83L150.661 124.79C150.295 125.158 150.226 125.73 150.496 126.175L153.126 130.522C153.434 131.039 153.964 131.332 154.546 131.332C154.615 131.332 154.692 131.332 154.76 131.323C155.427 131.237 155.958 130.781 156.155 130.135L160.236 116.386C160.416 115.8 160.253 115.163 159.825 114.724Z" fill="#1443BD"/>
</g>
<defs>
<filter id="filter0_ddddd_88_554" x="22.9127" y="18.5388" width="155.097" height="155.097" filterUnits="userSpaceOnUse" color-interpolation-filters="sRGB">
<feFlood flood-opacity="0" result="BackgroundImageFix"/>
<feColorMatrix in="SourceAlpha" type="matrix" values="0 0 0 0 0 0 0 0 0 0 0 0 0 0 0 0 0 0 127 0" result="hardAlpha"/>
<feOffset dy="6"/>
<feGaussianBlur stdDeviation="4"/>
<feColorMatrix type="matrix" values="0 0 0 0 0.705882 0 0 0 0 0.831373 0 0 0 0 0.921569 0 0 0 0.12 0"/>
<feBlend mode="normal" in2="BackgroundImageFix" result="effect1_dropShadow_88_554"/>
<feColorMatrix in="SourceAlpha" type="matrix" values="0 0 0 0 0 0 0 0 0 0 0 0 0 0 0 0 0 0 127 0" result="hardAlpha"/>
<feOffset dy="8"/>
<feGaussianBlur stdDeviation="12"/>
<feColorMatrix type="matrix" values="0 0 0 0 0.705882 0 0 0 0 0.831373 0 0 0 0 0.921569 0 0 0 0.08 0"/>
<feBlend mode="normal" in2="effect1_dropShadow_88_554" result="effect2_dropShadow_88_554"/>
<feColorMatrix in="SourceAlpha" type="matrix" values="0 0 0 0 0 0 0 0 0 0 0 0 0 0 0 0 0 0 127 0" result="hardAlpha"/>
<feOffset dy="16"/>
<feGaussianBlur stdDeviation="18"/>
<feColorMatrix type="matrix" values="0 0 0 0 0.705882 0 0 0 0 0.831373 0 0 0 0 0.921569 0 0 0 0.04 0"/>
<feBlend mode="normal" in2="effect2_dropShadow_88_554" result="effect3_dropShadow_88_554"/>
<feColorMatrix in="SourceAlpha" type="matrix" values="0 0 0 0 0 0 0 0 0 0 0 0 0 0 0 0 0 0 127 0" result="hardAlpha"/>
<feOffset dy="40"/>
<feGaussianBlur stdDeviation="35"/>
<feColorMatrix type="matrix" values="0 0 0 0 0.705882 0 0 0 0 0.831373 0 0 0 0 0.921569 0 0 0 0.04 0"/>
<feBlend mode="normal" in2="effect3_dropShadow_88_554" result="effect4_dropShadow_88_554"/>
<feColorMatrix in="SourceAlpha" type="matrix" values="0 0 0 0 0 0 0 0 0 0 0 0 0 0 0 0 0 0 127 0" result="hardAlpha"/>
<feOffset dy="2"/>
<feGaussianBlur stdDeviation="2"/>
<feColorMatrix type="matrix" values="0 0 0 0 0.87451 0 0 0 0 0.929412 0 0 0 0 0.964706 0 0 0 0.4 0"/>
<feBlend mode="normal" in2="effect4_dropShadow_88_554" result="effect5_dropShadow_88_554"/>
<feBlend mode="normal" in="SourceGraphic" in2="effect5_dropShadow_88_554" result="shape"/>
</filter>
<filter id="filter1_ddddd_88_554" x="65.8945" y="75.052" width="173.588" height="173.588" filterUnits="userSpaceOnUse" color-interpolation-filters="sRGB">
<feFlood flood-opacity="0" result="BackgroundImageFix"/>
<feColorMatrix in="SourceAlpha" type="matrix" values="0 0 0 0 0 0 0 0 0 0 0 0 0 0 0 0 0 0 127 0" result="hardAlpha"/>
<feOffset dy="6"/>
<feGaussianBlur stdDeviation="4"/>
<feColorMatrix type="matrix" values="0 0 0 0 0.0392157 0 0 0 0 0.129412 0 0 0 0 0.372549 0 0 0 0.12 0"/>
<feBlend mode="normal" in2="BackgroundImageFix" result="effect1_dropShadow_88_554"/>
<feColorMatrix in="SourceAlpha" type="matrix" values="0 0 0 0 0 0 0 0 0 0 0 0 0 0 0 0 0 0 127 0" result="hardAlpha"/>
<feOffset dy="8"/>
<feGaussianBlur stdDeviation="12"/>
<feColorMatrix type="matrix" values="0 0 0 0 0.0392157 0 0 0 0 0.129412 0 0 0 0 0.372549 0 0 0 0.08 0"/>
<feBlend mode="normal" in2="effect1_dropShadow_88_554" result="effect2_dropShadow_88_554"/>
<feColorMatrix in="SourceAlpha" type="matrix" values="0 0 0 0 0 0 0 0 0 0 0 0 0 0 0 0 0 0 127 0" result="hardAlpha"/>
<feOffset dy="16"/>
<feGaussianBlur stdDeviation="18"/>
<feColorMatrix type="matrix" values="0 0 0 0 0.0392157 0 0 0 0 0.129412 0 0 0 0 0.372549 0 0 0 0.04 0"/>
<feBlend mode="normal" in2="effect2_dropShadow_88_554" result="effect3_dropShadow_88_554"/>
<feColorMatrix in="SourceAlpha" type="matrix" values="0 0 0 0 0 0 0 0 0 0 0 0 0 0 0 0 0 0 127 0" result="hardAlpha"/>
<feOffset dy="40"/>
<feGaussianBlur stdDeviation="35"/>
<feColorMatrix type="matrix" values="0 0 0 0 0.0392157 0 0 0 0 0.129412 0 0 0 0 0.372549 0 0 0 0.04 0"/>
<feBlend mode="normal" in2="effect3_dropShadow_88_554" result="effect4_dropShadow_88_554"/>
<feColorMatrix in="SourceAlpha" type="matrix" values="0 0 0 0 0 0 0 0 0 0 0 0 0 0 0 0 0 0 127 0" result="hardAlpha"/>
<feOffset dy="2"/>
<feGaussianBlur stdDeviation="2"/>
<feColorMatrix type="matrix" values="0 0 0 0 0.537255 0 0 0 0 0.631373 0 0 0 0 0.870588 0 0 0 0.4 0"/>
<feBlend mode="normal" in2="effect4_dropShadow_88_554" result="effect5_dropShadow_88_554"/>
<feBlend mode="normal" in="SourceGraphic" in2="effect5_dropShadow_88_554" result="shape"/>
</filter>
<clipPath id="clip0_88_554">
<rect width="68.1032" height="68.1032" fill="white" transform="translate(60.0511 58.0278) rotate(24.3769)"/>
</clipPath>
<clipPath id="clip1_88_554">
<rect width="39.9738" height="39.9738" fill="white" transform="translate(99.2971 58.1699) rotate(24.3769)"/>
</clipPath>
<clipPath id="clip2_88_554">
<rect width="39.9737" height="39.9737" fill="white" transform="translate(18.9257 67.4651) rotate(-11.2152)"/>
</clipPath>
<clipPath id="clip3_88_554">
<rect width="11.78" height="11.78" fill="white" transform="matrix(0.939764 0.341825 0.341824 -0.939764 92.9127 59.6091)"/>
</clipPath>
</defs>
</svg>
