<svg width="255" height="270" viewBox="0 0 255 270" fill="none" xmlns="http://www.w3.org/2000/svg">
<path d="M167.871 78.7981H15.6313V144.351H167.871V78.7981Z" fill="#1443BD"/>
<path d="M167.871 78.7981H15.6313V144.351H167.871V78.7981Z" fill="black" fill-opacity="0.35"/>
<path d="M85.9714 23.0527L15.6996 78.792L163.885 82.626C164.203 82.6254 164.52 82.5898 164.831 82.5199C166.691 82.0536 167.987 80.7074 167.966 78.792L95.4542 22.8701C92.5718 20.995 88.8538 21.1776 85.9714 23.0527Z" fill="#1443BD"/>
<path d="M85.9714 23.0527L15.6996 78.792L163.885 82.626C164.203 82.6254 164.52 82.5898 164.831 82.5199C166.691 82.0536 167.987 80.7074 167.966 78.792L95.4542 22.8701C92.5718 20.995 88.8538 21.1776 85.9714 23.0527Z" fill="black" fill-opacity="0.35"/>
<path fill-rule="evenodd" clip-rule="evenodd" d="M58.5044 81.694L72.2737 69.344L81.6196 85.5123L58.5044 81.694Z" fill="#FFD666"/>
<path fill-rule="evenodd" clip-rule="evenodd" d="M125.502 92.7609L116.42 76.6363L103.12 89.0638L125.502 92.7609Z" fill="#FFA940"/>
<path fill-rule="evenodd" clip-rule="evenodd" d="M58.5044 81.6941L85.3722 127.141L81.6301 85.5141L58.5044 81.6941Z" fill="#FFC53D"/>
<path fill-rule="evenodd" clip-rule="evenodd" d="M125.355 92.7368L85.3722 127.141L103.053 89.0529L125.355 92.7368Z" fill="#FA8C16"/>
<path fill-rule="evenodd" clip-rule="evenodd" d="M72.1567 69.3247L94.3913 72.9975L80.9224 85.3971L72.1567 69.3247Z" fill="#FFC53D"/>
<path fill-rule="evenodd" clip-rule="evenodd" d="M94.2445 72.9731L116.479 76.646L103.091 89.0589L94.2445 72.9731Z" fill="#FFC53D"/>
<path fill-rule="evenodd" clip-rule="evenodd" d="M80.8889 85.3717L94.3405 72.9891L103.124 89.0446L101.139 93.1089L81.5118 89.6768L80.8889 85.3717Z" fill="#FFA940"/>
<path fill-rule="evenodd" clip-rule="evenodd" d="M80.9591 85.4031L85.3907 127.144L103.12 89.0638L80.9591 85.4031Z" fill="#FAAD14"/>
<g clip-path="url(#clip0_70_553)">
<path d="M80.6003 152.057C95.1389 158.645 112.296 152.131 118.922 137.508C125.548 122.885 119.134 105.691 104.596 99.1028C90.057 92.5149 72.8996 99.0285 66.2735 113.651C59.6474 128.274 66.0617 145.469 80.6003 152.057Z" fill="#FFD666"/>
<path d="M82.7101 146.513C94.5209 151.865 108.434 146.629 113.786 134.818C119.138 123.007 113.902 109.094 102.091 103.742C90.2802 98.3903 76.367 103.626 71.0151 115.437C65.6632 127.248 70.8992 141.161 82.7101 146.513Z" fill="#FFC53D"/>
<path d="M86.2572 139.105C85.63 138.821 85.1513 138.546 84.8211 138.28L86.2804 135.059C85.1507 134.344 84.1662 133.549 83.3268 132.674C82.4874 131.799 81.8497 131.009 81.4138 130.302C81.6609 129.789 82.0691 129.305 82.6384 128.851C83.2078 128.397 83.7341 128.134 84.2173 128.062C84.797 128.964 85.5307 129.864 86.4184 130.76C87.306 131.657 88.2718 132.349 89.3157 132.836C90.341 133.301 91.2837 133.466 92.1438 133.333C93.0095 133.187 93.6314 132.713 94.0097 131.91C94.3223 131.252 94.3884 130.577 94.2078 129.885C94.0328 129.18 93.564 128.466 92.8014 127.743L89.8572 124.904C88.7501 123.85 87.9986 122.717 87.6027 121.505C87.2243 120.287 87.3329 119.02 87.9287 117.706C88.6119 116.198 89.6972 115.134 91.1848 114.514C92.6844 113.9 94.3212 113.849 96.095 114.362L97.5297 111.196C97.7566 111.241 98.0082 111.311 98.2845 111.407C98.5729 111.509 98.8437 111.617 99.097 111.732C99.688 112 100.161 112.272 100.515 112.549L99.0721 115.733C100.036 116.301 100.881 116.923 101.606 117.601C102.343 118.284 102.97 118.953 103.487 119.609C103.247 120.14 102.877 120.619 102.378 121.047C101.89 121.481 101.375 121.785 100.83 121.96C100.193 121.119 99.489 120.364 98.7167 119.694C97.9564 119.029 97.1481 118.503 96.2917 118.115C95.3026 117.667 94.4142 117.526 93.6264 117.693C92.8387 117.859 92.2781 118.31 91.9447 119.046C91.6277 119.745 91.6163 120.38 91.9107 120.949C92.2106 121.507 92.6743 122.088 93.3019 122.692L96.0816 125.413C97.2633 126.559 98.0516 127.803 98.4466 129.145C98.8416 130.487 98.6921 131.924 97.9979 133.456C97.2983 135 96.1593 136.054 94.5807 136.618C93.0075 137.17 91.2277 137.119 89.2411 136.466L87.8064 139.632C87.4008 139.565 86.8844 139.389 86.2572 139.105Z" fill="white"/>
</g>
<g clip-path="url(#clip1_70_553)">
<path d="M117.554 122.035C126.088 125.902 136.158 122.078 140.048 113.495C143.937 104.912 140.172 94.8198 131.638 90.953C123.105 87.0861 113.034 90.9093 109.145 99.4923C105.256 108.075 109.021 118.168 117.554 122.035Z" fill="#FFD666"/>
<path d="M118.793 118.78C125.725 121.922 133.891 118.848 137.033 111.916C140.174 104.984 137.101 96.8171 130.168 93.6757C123.236 90.5344 115.069 93.6077 111.928 100.54C108.787 107.473 111.86 115.639 118.793 118.78Z" fill="#FFC53D"/>
<path d="M120.875 114.433C120.507 114.266 120.226 114.104 120.032 113.948L120.888 112.058C120.225 111.638 119.647 111.171 119.155 110.658C118.662 110.144 118.288 109.68 118.032 109.266C118.177 108.965 118.416 108.681 118.751 108.414C119.085 108.147 119.394 107.993 119.677 107.951C120.018 108.48 120.448 109.008 120.969 109.535C121.49 110.061 122.057 110.467 122.67 110.753C123.272 111.026 123.825 111.123 124.33 111.045C124.838 110.959 125.203 110.681 125.425 110.21C125.609 109.823 125.647 109.427 125.541 109.021C125.439 108.607 125.163 108.188 124.716 107.763L122.988 106.097C122.338 105.478 121.897 104.813 121.664 104.102C121.442 103.387 121.506 102.644 121.856 101.872C122.257 100.987 122.894 100.363 123.767 99.9989C124.647 99.6383 125.608 99.6086 126.649 99.9097L127.491 98.0513C127.624 98.0775 127.772 98.1188 127.934 98.1752C128.103 98.2348 128.262 98.2983 128.411 98.3657C128.758 98.5229 129.035 98.6827 129.243 98.8453L128.397 100.714C128.962 101.047 129.458 101.413 129.884 101.811C130.316 102.212 130.685 102.604 130.988 102.989C130.847 103.301 130.63 103.582 130.337 103.834C130.051 104.088 129.748 104.266 129.428 104.369C129.055 103.876 128.641 103.432 128.188 103.039C127.742 102.649 127.267 102.34 126.765 102.112C126.184 101.849 125.663 101.767 125.2 101.864C124.738 101.962 124.409 102.227 124.213 102.659C124.027 103.069 124.02 103.442 124.193 103.776C124.369 104.103 124.641 104.444 125.01 104.799L126.641 106.396C127.335 107.068 127.798 107.799 128.029 108.586C128.261 109.374 128.173 110.218 127.766 111.117C127.355 112.023 126.687 112.642 125.76 112.973C124.837 113.297 123.792 113.267 122.626 112.884L121.784 114.742C121.546 114.703 121.243 114.599 120.875 114.433Z" fill="white"/>
</g>
<g clip-path="url(#clip2_70_553)">
<path d="M61.5223 121.426C70.7122 119.604 76.6763 110.634 74.8435 101.391C73.0108 92.1478 64.0752 86.1319 54.8854 87.9541C45.6955 89.7763 39.7314 98.7464 41.5642 107.99C43.3969 117.233 52.3325 123.249 61.5223 121.426Z" fill="#FFD666"/>
<path d="M60.6353 118.059C68.1009 116.579 72.953 109.327 71.4727 101.861C69.9924 94.3956 62.7403 89.5435 55.2746 91.0238C47.809 92.5041 42.9569 99.7562 44.4372 107.222C45.9175 114.688 53.1696 119.54 60.6353 118.059Z" fill="#FFC53D"/>
<path d="M59.7974 113.312C59.401 113.39 59.0785 113.423 58.8301 113.408L58.4264 111.373C57.6428 111.417 56.9013 111.374 56.2018 111.243C55.5024 111.113 54.928 110.953 54.4786 110.765C54.4212 110.436 54.4508 110.065 54.5673 109.654C54.6839 109.242 54.8452 108.937 55.0513 108.738C55.6363 108.97 56.2937 109.149 57.0237 109.274C57.7536 109.398 58.451 109.399 59.1158 109.275C59.7639 109.146 60.2704 108.903 60.6353 108.546C60.9987 108.18 61.1336 107.742 61.0399 107.229C60.9644 106.809 60.7653 106.464 60.4425 106.195C60.1183 105.918 59.6506 105.738 59.0395 105.653L56.6644 105.304C55.7759 105.179 55.0302 104.895 54.4273 104.452C53.8305 104 53.4497 103.358 53.2849 102.527C53.096 101.574 53.2506 100.695 53.7489 99.8913C54.2548 99.0857 55.0187 98.5024 56.0406 98.1413L55.6438 96.1399C55.7673 96.0837 55.9115 96.0314 56.0762 95.9829C56.2485 95.9329 56.4147 95.892 56.5748 95.8602C56.9484 95.7862 57.2671 95.7547 57.5308 95.7658L57.9299 97.7786C58.5839 97.7202 59.1997 97.7289 59.7773 97.8045C60.3626 97.8786 60.8906 97.9839 61.3614 98.1204C61.4279 98.4558 61.4151 98.811 61.323 99.1858C61.2386 99.5592 61.0963 99.8806 60.8961 100.15C60.305 99.9661 59.7107 99.8463 59.1132 99.7904C58.5234 99.733 57.9578 99.758 57.4165 99.8653C56.7913 99.9893 56.3191 100.226 56 100.574C55.6808 100.923 55.5673 101.329 55.6596 101.795C55.7472 102.237 55.9586 102.543 56.2937 102.715C56.6273 102.878 57.047 102.997 57.553 103.071L59.8092 103.42C60.7647 103.564 61.566 103.888 62.213 104.394C62.86 104.899 63.2795 105.636 63.4715 106.605C63.665 107.58 63.4814 108.473 62.9206 109.281C62.3583 110.082 61.4915 110.666 60.3202 111.033L60.7171 113.034C60.5004 113.141 60.1939 113.233 59.7974 113.312Z" fill="white"/>
</g>
<path d="M95.8399 137.064C93.3253 137.904 90.5648 137.549 88.3445 136.101L15.5172 78.792V175.337C15.5172 177.474 17.6233 179.208 19.875 179.208H163.882C166.138 179.208 167.967 177.474 167.967 175.337V78.792L98.4214 135.643C97.6504 136.264 96.7767 136.745 95.8399 137.064Z" fill="#2A84C6"/>
<path d="M95.8399 137.064C93.3253 137.904 90.5648 137.549 88.3445 136.101L15.5172 78.792V175.337C15.5172 177.474 17.6233 179.208 19.875 179.208H163.882C166.138 179.208 167.967 177.474 167.967 175.337V78.792L98.4214 135.643C97.6504 136.264 96.7767 136.745 95.8399 137.064Z" fill="white" fill-opacity="0.85"/>
<path fill-rule="evenodd" clip-rule="evenodd" d="M95.8399 137.064C93.3253 137.904 90.5648 137.549 88.3445 136.101L87.7625 135.643L15.5172 175.337C15.5172 177.474 17.6233 179.208 19.875 179.208H163.882C166.138 179.208 167.967 177.474 167.967 175.337L98.4214 135.643C97.6504 136.264 96.7767 136.745 95.8399 137.064Z" fill="#1443BD"/>
<path fill-rule="evenodd" clip-rule="evenodd" d="M95.8399 137.064C93.3253 137.904 90.5648 137.549 88.3445 136.101L87.7625 135.643L15.5172 175.337C15.5172 177.474 17.6233 179.208 19.875 179.208H163.882C166.138 179.208 167.967 177.474 167.967 175.337L98.4214 135.643C97.6504 136.264 96.7767 136.745 95.8399 137.064Z" fill="white" fill-opacity="0.85"/>
<g clip-path="url(#clip3_70_553)" filter="url(#filter0_ddddd_70_553)">
<path fill-rule="evenodd" clip-rule="evenodd" d="M113.904 81.3679L113.397 78.0502L111.18 75.5303L111.18 75.53L114.498 75.0231L117.018 72.8062L117.525 76.1241L119.742 78.6443L119.742 78.6444L116.424 79.1512L113.904 81.368L113.904 81.3681L113.904 81.3679Z" fill="white"/>
</g>
<g filter="url(#filter1_ddddd_70_553)">
<ellipse cx="167.689" cy="142.846" rx="16.7941" ry="16.7941" fill="white"/>
<path d="M174.825 135.724C174.398 135.285 173.764 135.122 173.174 135.294L159.407 139.297C158.784 139.47 158.343 139.967 158.224 140.598C158.102 141.24 158.527 142.056 159.081 142.397L163.386 145.042C163.827 145.313 164.397 145.245 164.763 144.877L169.692 139.917C169.94 139.659 170.35 139.659 170.599 139.917C170.847 140.167 170.847 140.571 170.599 140.83L165.661 145.79C165.295 146.158 165.226 146.73 165.496 147.175L168.126 151.522C168.434 152.039 168.964 152.332 169.546 152.332C169.615 152.332 169.692 152.332 169.76 152.323C170.427 152.237 170.958 151.781 171.155 151.135L175.236 137.386C175.416 136.8 175.253 136.163 174.825 135.724" fill="#1443BD"/>
</g>
<defs>
<filter id="filter0_ddddd_70_553" x="37.9127" y="39.5388" width="155.097" height="155.097" filterUnits="userSpaceOnUse" color-interpolation-filters="sRGB">
<feFlood flood-opacity="0" result="BackgroundImageFix"/>
<feColorMatrix in="SourceAlpha" type="matrix" values="0 0 0 0 0 0 0 0 0 0 0 0 0 0 0 0 0 0 127 0" result="hardAlpha"/>
<feOffset dy="6"/>
<feGaussianBlur stdDeviation="4"/>
<feColorMatrix type="matrix" values="0 0 0 0 0.705882 0 0 0 0 0.831373 0 0 0 0 0.921569 0 0 0 0.12 0"/>
<feBlend mode="normal" in2="BackgroundImageFix" result="effect1_dropShadow_70_553"/>
<feColorMatrix in="SourceAlpha" type="matrix" values="0 0 0 0 0 0 0 0 0 0 0 0 0 0 0 0 0 0 127 0" result="hardAlpha"/>
<feOffset dy="8"/>
<feGaussianBlur stdDeviation="12"/>
<feColorMatrix type="matrix" values="0 0 0 0 0.705882 0 0 0 0 0.831373 0 0 0 0 0.921569 0 0 0 0.08 0"/>
<feBlend mode="normal" in2="effect1_dropShadow_70_553" result="effect2_dropShadow_70_553"/>
<feColorMatrix in="SourceAlpha" type="matrix" values="0 0 0 0 0 0 0 0 0 0 0 0 0 0 0 0 0 0 127 0" result="hardAlpha"/>
<feOffset dy="16"/>
<feGaussianBlur stdDeviation="18"/>
<feColorMatrix type="matrix" values="0 0 0 0 0.705882 0 0 0 0 0.831373 0 0 0 0 0.921569 0 0 0 0.04 0"/>
<feBlend mode="normal" in2="effect2_dropShadow_70_553" result="effect3_dropShadow_70_553"/>
<feColorMatrix in="SourceAlpha" type="matrix" values="0 0 0 0 0 0 0 0 0 0 0 0 0 0 0 0 0 0 127 0" result="hardAlpha"/>
<feOffset dy="40"/>
<feGaussianBlur stdDeviation="35"/>
<feColorMatrix type="matrix" values="0 0 0 0 0.705882 0 0 0 0 0.831373 0 0 0 0 0.921569 0 0 0 0.04 0"/>
<feBlend mode="normal" in2="effect3_dropShadow_70_553" result="effect4_dropShadow_70_553"/>
<feColorMatrix in="SourceAlpha" type="matrix" values="0 0 0 0 0 0 0 0 0 0 0 0 0 0 0 0 0 0 127 0" result="hardAlpha"/>
<feOffset dy="2"/>
<feGaussianBlur stdDeviation="2"/>
<feColorMatrix type="matrix" values="0 0 0 0 0.87451 0 0 0 0 0.929412 0 0 0 0 0.964706 0 0 0 0.4 0"/>
<feBlend mode="normal" in2="effect4_dropShadow_70_553" result="effect5_dropShadow_70_553"/>
<feBlend mode="normal" in="SourceGraphic" in2="effect5_dropShadow_70_553" result="shape"/>
</filter>
<filter id="filter1_ddddd_70_553" x="80.8945" y="96.052" width="173.588" height="173.588" filterUnits="userSpaceOnUse" color-interpolation-filters="sRGB">
<feFlood flood-opacity="0" result="BackgroundImageFix"/>
<feColorMatrix in="SourceAlpha" type="matrix" values="0 0 0 0 0 0 0 0 0 0 0 0 0 0 0 0 0 0 127 0" result="hardAlpha"/>
<feOffset dy="6"/>
<feGaussianBlur stdDeviation="4"/>
<feColorMatrix type="matrix" values="0 0 0 0 0.0392157 0 0 0 0 0.129412 0 0 0 0 0.372549 0 0 0 0.12 0"/>
<feBlend mode="normal" in2="BackgroundImageFix" result="effect1_dropShadow_70_553"/>
<feColorMatrix in="SourceAlpha" type="matrix" values="0 0 0 0 0 0 0 0 0 0 0 0 0 0 0 0 0 0 127 0" result="hardAlpha"/>
<feOffset dy="8"/>
<feGaussianBlur stdDeviation="12"/>
<feColorMatrix type="matrix" values="0 0 0 0 0.0392157 0 0 0 0 0.129412 0 0 0 0 0.372549 0 0 0 0.08 0"/>
<feBlend mode="normal" in2="effect1_dropShadow_70_553" result="effect2_dropShadow_70_553"/>
<feColorMatrix in="SourceAlpha" type="matrix" values="0 0 0 0 0 0 0 0 0 0 0 0 0 0 0 0 0 0 127 0" result="hardAlpha"/>
<feOffset dy="16"/>
<feGaussianBlur stdDeviation="18"/>
<feColorMatrix type="matrix" values="0 0 0 0 0.0392157 0 0 0 0 0.129412 0 0 0 0 0.372549 0 0 0 0.04 0"/>
<feBlend mode="normal" in2="effect2_dropShadow_70_553" result="effect3_dropShadow_70_553"/>
<feColorMatrix in="SourceAlpha" type="matrix" values="0 0 0 0 0 0 0 0 0 0 0 0 0 0 0 0 0 0 127 0" result="hardAlpha"/>
<feOffset dy="40"/>
<feGaussianBlur stdDeviation="35"/>
<feColorMatrix type="matrix" values="0 0 0 0 0.0392157 0 0 0 0 0.129412 0 0 0 0 0.372549 0 0 0 0.04 0"/>
<feBlend mode="normal" in2="effect3_dropShadow_70_553" result="effect4_dropShadow_70_553"/>
<feColorMatrix in="SourceAlpha" type="matrix" values="0 0 0 0 0 0 0 0 0 0 0 0 0 0 0 0 0 0 127 0" result="hardAlpha"/>
<feOffset dy="2"/>
<feGaussianBlur stdDeviation="2"/>
<feColorMatrix type="matrix" values="0 0 0 0 0.537255 0 0 0 0 0.631373 0 0 0 0 0.870588 0 0 0 0.4 0"/>
<feBlend mode="normal" in2="effect4_dropShadow_70_553" result="effect5_dropShadow_70_553"/>
<feBlend mode="normal" in="SourceGraphic" in2="effect5_dropShadow_70_553" result="shape"/>
</filter>
<clipPath id="clip0_70_553">
<rect width="68.1032" height="68.1032" fill="white" transform="translate(75.0511 79.0278) rotate(24.3769)"/>
</clipPath>
<clipPath id="clip1_70_553">
<rect width="39.9738" height="39.9738" fill="white" transform="translate(114.297 79.1699) rotate(24.3769)"/>
</clipPath>
<clipPath id="clip2_70_553">
<rect width="39.9737" height="39.9737" fill="white" transform="translate(33.9257 88.4651) rotate(-11.2152)"/>
</clipPath>
<clipPath id="clip3_70_553">
<rect width="11.78" height="11.78" fill="white" transform="matrix(0.939764 0.341825 0.341824 -0.939764 107.913 80.6091)"/>
</clipPath>
</defs>
</svg>
