<svg width="277" height="206" viewBox="0 0 277 206" fill="none" xmlns="http://www.w3.org/2000/svg">
<path fill-rule="evenodd" clip-rule="evenodd" d="M179.936 41.0779H20.1172V26.7576C20.1172 23.6512 22.6358 21.1326 25.7422 21.1326H174.311C177.417 21.1326 179.936 23.6512 179.936 26.7576V41.0779Z" fill="#1443BD"/>
<path fill-rule="evenodd" clip-rule="evenodd" d="M179.936 41.0779H20.1172V26.7576C20.1172 23.6512 22.6358 21.1326 25.7422 21.1326H174.311C177.417 21.1326 179.936 23.6512 179.936 26.7576V41.0779Z" fill="black" fill-opacity="0.5"/>
<path fill-rule="evenodd" clip-rule="evenodd" d="M174.311 178.961H25.7422C22.6358 178.961 20.1172 176.443 20.1172 173.336V39.4011H179.936V173.336C179.936 176.443 177.417 178.961 174.311 178.961Z" fill="#2A84C6"/>
<path fill-rule="evenodd" clip-rule="evenodd" d="M174.311 178.961H25.7422C22.6358 178.961 20.1172 176.443 20.1172 173.336V39.4011H179.936V173.336C179.936 176.443 177.417 178.961 174.311 178.961Z" fill="white" fill-opacity="0.85"/>
<path fill-rule="evenodd" clip-rule="evenodd" d="M33.105 30.4152C33.105 32.3647 31.5244 33.9453 29.5747 33.9453C27.6251 33.9453 26.0447 32.3647 26.0447 30.4152C26.0447 28.4656 27.6251 26.885 29.5747 26.885C31.5244 26.885 33.105 28.4656 33.105 30.4152Z" fill="#F56D7E"/>
<path fill-rule="evenodd" clip-rule="evenodd" d="M46.2884 30.4152C46.2884 32.3647 44.708 33.9453 42.7583 33.9453C40.8087 33.9453 39.2283 32.3647 39.2283 30.4152C39.2283 28.4656 40.8087 26.885 42.7583 26.885C44.708 26.885 46.2884 28.4656 46.2884 30.4152Z" fill="#F1F380"/>
<path fill-rule="evenodd" clip-rule="evenodd" d="M59.472 30.4152C59.472 32.3647 57.8916 33.9453 55.9419 33.9453C53.9923 33.9453 52.4119 32.3647 52.4119 30.4152C52.4119 28.4656 53.9923 26.885 55.9419 26.885C57.8916 26.885 59.472 28.4656 59.472 30.4152Z" fill="#B7EE81"/>
<path fill-rule="evenodd" clip-rule="evenodd" d="M37.3905 159.977C36.4209 159.977 35.6353 159.192 35.6353 158.223V56.55C35.6353 55.5814 36.4209 54.7961 37.3905 54.7961H164.408C165.377 54.7961 166.163 55.5814 166.163 56.55V158.223C166.163 159.192 165.377 159.977 164.408 159.977H37.3905Z" fill="white"/>
<path fill-rule="evenodd" clip-rule="evenodd" d="M88.6879 104.101H62.1714C60.1821 104.101 58.5546 102.474 58.5546 100.485V73.9681C58.5546 71.9788 60.1821 70.3513 62.1714 70.3513H88.6879C90.6772 70.3513 92.3046 71.9788 92.3046 73.9681V100.485C92.3046 102.474 90.6772 104.101 88.6879 104.101Z" fill="#1443BD"/>
<path fill-rule="evenodd" clip-rule="evenodd" d="M88.6695 150.039H62.1898C60.1904 150.039 58.5546 148.404 58.5546 146.404V119.924C58.5546 117.925 60.1904 116.289 62.1898 116.289H88.6695C90.6688 116.289 92.3046 117.925 92.3046 119.924V146.404C92.3046 148.404 90.6688 150.039 88.6695 150.039Z" fill="#B7EE81"/>
<path fill-rule="evenodd" clip-rule="evenodd" d="M136.482 150.039H110.002C108.003 150.039 106.367 148.404 106.367 146.404V119.924C106.367 117.925 108.003 116.289 110.002 116.289H136.482C138.481 116.289 140.117 117.925 140.117 119.924V146.404C140.117 148.404 138.481 150.039 136.482 150.039Z" fill="#1443BD"/>
<g filter="url(#filter0_ddddd_70_535)">
<rect x="114.655" y="70.6897" width="91.3793" height="25" rx="12.5" fill="white"/>
</g>
<path fill-rule="evenodd" clip-rule="evenodd" d="M192.688 100.406C192.687 100.372 192.692 100.338 192.703 100.305C192.735 100.199 192.82 100.115 192.929 100.082L198.71 98.2987C198.978 98.2163 199.016 97.9855 199.022 97.9168C199.027 97.8479 199.025 97.6144 198.773 97.4939L182.928 89.9143C182.772 89.8394 182.596 89.8563 182.457 89.9595C182.319 90.0627 182.256 90.2233 182.29 90.3896L185.786 107.488C185.841 107.754 186.071 107.817 186.14 107.83C186.209 107.843 186.447 107.868 186.6 107.641L190.042 102.55C190.103 102.459 190.207 102.402 190.319 102.399C190.431 102.395 190.538 102.444 190.605 102.531L196.152 109.632C196.21 109.706 196.316 109.722 196.395 109.668L198.72 108.063C198.774 108.026 198.789 107.975 198.793 107.947C198.796 107.92 198.797 107.867 198.755 107.817L192.764 100.611C192.715 100.552 192.689 100.48 192.688 100.406Z" fill="#1443BD"/>
<defs>
<filter id="filter0_ddddd_70_535" x="44.6552" y="40.6897" width="231.379" height="165" filterUnits="userSpaceOnUse" color-interpolation-filters="sRGB">
<feFlood flood-opacity="0" result="BackgroundImageFix"/>
<feColorMatrix in="SourceAlpha" type="matrix" values="0 0 0 0 0 0 0 0 0 0 0 0 0 0 0 0 0 0 127 0" result="hardAlpha"/>
<feOffset dy="6"/>
<feGaussianBlur stdDeviation="4"/>
<feColorMatrix type="matrix" values="0 0 0 0 0.0392157 0 0 0 0 0.129412 0 0 0 0 0.372549 0 0 0 0.12 0"/>
<feBlend mode="normal" in2="BackgroundImageFix" result="effect1_dropShadow_70_535"/>
<feColorMatrix in="SourceAlpha" type="matrix" values="0 0 0 0 0 0 0 0 0 0 0 0 0 0 0 0 0 0 127 0" result="hardAlpha"/>
<feOffset dy="8"/>
<feGaussianBlur stdDeviation="12"/>
<feColorMatrix type="matrix" values="0 0 0 0 0.0392157 0 0 0 0 0.129412 0 0 0 0 0.372549 0 0 0 0.08 0"/>
<feBlend mode="normal" in2="effect1_dropShadow_70_535" result="effect2_dropShadow_70_535"/>
<feColorMatrix in="SourceAlpha" type="matrix" values="0 0 0 0 0 0 0 0 0 0 0 0 0 0 0 0 0 0 127 0" result="hardAlpha"/>
<feOffset dy="16"/>
<feGaussianBlur stdDeviation="18"/>
<feColorMatrix type="matrix" values="0 0 0 0 0.0392157 0 0 0 0 0.129412 0 0 0 0 0.372549 0 0 0 0.04 0"/>
<feBlend mode="normal" in2="effect2_dropShadow_70_535" result="effect3_dropShadow_70_535"/>
<feColorMatrix in="SourceAlpha" type="matrix" values="0 0 0 0 0 0 0 0 0 0 0 0 0 0 0 0 0 0 127 0" result="hardAlpha"/>
<feOffset dy="40"/>
<feGaussianBlur stdDeviation="35"/>
<feColorMatrix type="matrix" values="0 0 0 0 0.0392157 0 0 0 0 0.129412 0 0 0 0 0.372549 0 0 0 0.04 0"/>
<feBlend mode="normal" in2="effect3_dropShadow_70_535" result="effect4_dropShadow_70_535"/>
<feColorMatrix in="SourceAlpha" type="matrix" values="0 0 0 0 0 0 0 0 0 0 0 0 0 0 0 0 0 0 127 0" result="hardAlpha"/>
<feOffset dy="2"/>
<feGaussianBlur stdDeviation="2"/>
<feColorMatrix type="matrix" values="0 0 0 0 0.537255 0 0 0 0 0.631373 0 0 0 0 0.870588 0 0 0 0.4 0"/>
<feBlend mode="normal" in2="effect4_dropShadow_70_535" result="effect5_dropShadow_70_535"/>
<feBlend mode="normal" in="SourceGraphic" in2="effect5_dropShadow_70_535" result="shape"/>
</filter>
</defs>
</svg>
