<svg width="257" height="185" viewBox="0 0 257 185" fill="none" xmlns="http://www.w3.org/2000/svg">
<path fill-rule="evenodd" clip-rule="evenodd" d="M159.936 20.0779H0.117188V5.75757C0.117188 2.65116 2.63578 0.132568 5.74219 0.132568H154.311C157.417 0.132568 159.936 2.65116 159.936 5.75757V20.0779Z" fill="#1443BD"/>
<path fill-rule="evenodd" clip-rule="evenodd" d="M159.936 20.0779H0.117188V5.75757C0.117188 2.65116 2.63578 0.132568 5.74219 0.132568H154.311C157.417 0.132568 159.936 2.65116 159.936 5.75757V20.0779Z" fill="black" fill-opacity="0.5"/>
<path fill-rule="evenodd" clip-rule="evenodd" d="M154.311 157.961H5.74219C2.63578 157.961 0.117188 155.443 0.117188 152.336V18.4011H159.936V152.336C159.936 155.443 157.417 157.961 154.311 157.961Z" fill="#2A84C6"/>
<path fill-rule="evenodd" clip-rule="evenodd" d="M154.311 157.961H5.74219C2.63578 157.961 0.117188 155.443 0.117188 152.336V18.4011H159.936V152.336C159.936 155.443 157.417 157.961 154.311 157.961Z" fill="white" fill-opacity="0.85"/>
<path fill-rule="evenodd" clip-rule="evenodd" d="M13.105 9.41516C13.105 11.3647 11.5244 12.9453 9.57466 12.9453C7.62513 12.9453 6.04474 11.3647 6.04474 9.41516C6.04474 7.46563 7.62513 5.88501 9.57466 5.88501C11.5244 5.88501 13.105 7.46563 13.105 9.41516Z" fill="#F56D7E"/>
<path fill-rule="evenodd" clip-rule="evenodd" d="M26.2884 9.41516C26.2884 11.3647 24.708 12.9453 22.7583 12.9453C20.8087 12.9453 19.2283 11.3647 19.2283 9.41516C19.2283 7.46563 20.8087 5.88501 22.7583 5.88501C24.708 5.88501 26.2884 7.46563 26.2884 9.41516Z" fill="#F1F380"/>
<path fill-rule="evenodd" clip-rule="evenodd" d="M39.472 9.41516C39.472 11.3647 37.8916 12.9453 35.9419 12.9453C33.9923 12.9453 32.4119 11.3647 32.4119 9.41516C32.4119 7.46563 33.9923 5.88501 35.9419 5.88501C37.8916 5.88501 39.472 7.46563 39.472 9.41516Z" fill="#B7EE81"/>
<path fill-rule="evenodd" clip-rule="evenodd" d="M17.3905 138.977C16.4209 138.977 15.6353 138.192 15.6353 137.223V35.55C15.6353 34.5814 16.4209 33.7961 17.3905 33.7961H144.408C145.377 33.7961 146.163 34.5814 146.163 35.55V137.223C146.163 138.192 145.377 138.977 144.408 138.977H17.3905Z" fill="white"/>
<path fill-rule="evenodd" clip-rule="evenodd" d="M68.6879 83.1013H42.1714C40.1821 83.1013 38.5546 81.4737 38.5546 79.4846V52.9681C38.5546 50.9788 40.1821 49.3513 42.1714 49.3513H68.6879C70.6772 49.3513 72.3046 50.9788 72.3046 52.9681V79.4846C72.3046 81.4737 70.6772 83.1013 68.6879 83.1013Z" fill="#1443BD"/>
<path fill-rule="evenodd" clip-rule="evenodd" d="M68.6695 129.039H42.1898C40.1904 129.039 38.5546 127.404 38.5546 125.404V98.9245C38.5546 96.9251 40.1904 95.2893 42.1898 95.2893H68.6695C70.6688 95.2893 72.3046 96.9251 72.3046 98.9245V125.404C72.3046 127.404 70.6688 129.039 68.6695 129.039Z" fill="#B7EE81"/>
<path fill-rule="evenodd" clip-rule="evenodd" d="M116.482 129.039H90.002C88.0028 129.039 86.367 127.404 86.367 125.404V98.9245C86.367 96.9251 88.0028 95.2893 90.002 95.2893H116.482C118.481 95.2893 120.117 96.9251 120.117 98.9245V125.404C120.117 127.404 118.481 129.039 116.482 129.039Z" fill="#1443BD"/>
<g filter="url(#filter0_ddddd_88_536)">
<rect x="94.6552" y="49.6897" width="91.3793" height="25" rx="12.5" fill="white"/>
</g>
<path fill-rule="evenodd" clip-rule="evenodd" d="M172.688 79.4057C172.687 79.3719 172.692 79.3379 172.703 79.3047C172.735 79.1989 172.82 79.1155 172.929 79.0819L178.71 77.2987C178.978 77.2163 179.016 76.9855 179.022 76.9168C179.027 76.8479 179.025 76.6144 178.773 76.4939L162.928 68.9143C162.772 68.8394 162.596 68.8563 162.457 68.9595C162.319 69.0627 162.256 69.2233 162.29 69.3896L165.786 86.4878C165.841 86.7536 166.071 86.8168 166.14 86.8299C166.209 86.843 166.447 86.868 166.6 86.6412L170.042 81.5497C170.103 81.4587 170.207 81.4024 170.319 81.3986C170.431 81.3949 170.538 81.4442 170.605 81.5308L176.152 88.632C176.21 88.7059 176.316 88.7217 176.395 88.6679L178.72 87.0633C178.774 87.026 178.789 86.9746 178.793 86.9472C178.796 86.9199 178.797 86.8665 178.755 86.8165L172.764 79.6113C172.715 79.5523 172.689 79.4796 172.688 79.4057Z" fill="#1443BD"/>
<defs>
<filter id="filter0_ddddd_88_536" x="24.6552" y="19.6897" width="231.379" height="165" filterUnits="userSpaceOnUse" color-interpolation-filters="sRGB">
<feFlood flood-opacity="0" result="BackgroundImageFix"/>
<feColorMatrix in="SourceAlpha" type="matrix" values="0 0 0 0 0 0 0 0 0 0 0 0 0 0 0 0 0 0 127 0" result="hardAlpha"/>
<feOffset dy="6"/>
<feGaussianBlur stdDeviation="4"/>
<feColorMatrix type="matrix" values="0 0 0 0 0.0392157 0 0 0 0 0.129412 0 0 0 0 0.372549 0 0 0 0.12 0"/>
<feBlend mode="normal" in2="BackgroundImageFix" result="effect1_dropShadow_88_536"/>
<feColorMatrix in="SourceAlpha" type="matrix" values="0 0 0 0 0 0 0 0 0 0 0 0 0 0 0 0 0 0 127 0" result="hardAlpha"/>
<feOffset dy="8"/>
<feGaussianBlur stdDeviation="12"/>
<feColorMatrix type="matrix" values="0 0 0 0 0.0392157 0 0 0 0 0.129412 0 0 0 0 0.372549 0 0 0 0.08 0"/>
<feBlend mode="normal" in2="effect1_dropShadow_88_536" result="effect2_dropShadow_88_536"/>
<feColorMatrix in="SourceAlpha" type="matrix" values="0 0 0 0 0 0 0 0 0 0 0 0 0 0 0 0 0 0 127 0" result="hardAlpha"/>
<feOffset dy="16"/>
<feGaussianBlur stdDeviation="18"/>
<feColorMatrix type="matrix" values="0 0 0 0 0.0392157 0 0 0 0 0.129412 0 0 0 0 0.372549 0 0 0 0.04 0"/>
<feBlend mode="normal" in2="effect2_dropShadow_88_536" result="effect3_dropShadow_88_536"/>
<feColorMatrix in="SourceAlpha" type="matrix" values="0 0 0 0 0 0 0 0 0 0 0 0 0 0 0 0 0 0 127 0" result="hardAlpha"/>
<feOffset dy="40"/>
<feGaussianBlur stdDeviation="35"/>
<feColorMatrix type="matrix" values="0 0 0 0 0.0392157 0 0 0 0 0.129412 0 0 0 0 0.372549 0 0 0 0.04 0"/>
<feBlend mode="normal" in2="effect3_dropShadow_88_536" result="effect4_dropShadow_88_536"/>
<feColorMatrix in="SourceAlpha" type="matrix" values="0 0 0 0 0 0 0 0 0 0 0 0 0 0 0 0 0 0 127 0" result="hardAlpha"/>
<feOffset dy="2"/>
<feGaussianBlur stdDeviation="2"/>
<feColorMatrix type="matrix" values="0 0 0 0 0.537255 0 0 0 0 0.631373 0 0 0 0 0.870588 0 0 0 0.4 0"/>
<feBlend mode="normal" in2="effect4_dropShadow_88_536" result="effect5_dropShadow_88_536"/>
<feBlend mode="normal" in="SourceGraphic" in2="effect5_dropShadow_88_536" result="shape"/>
</filter>
</defs>
</svg>
